<svg xmlns="http://www.w3.org/2000/svg" xmlns:xlink="http://www.w3.org/1999/xlink" width="100" zoomAndPan="magnify" viewBox="0 0 75 74.999997" height="100" preserveAspectRatio="xMidYMid meet" version="1.0"><defs><clipPath id="0607190b58"><path d="M 15.113281 10.929688 L 60.113281 10.929688 L 60.113281 64.179688 L 15.113281 64.179688 Z M 15.113281 10.929688 " clip-rule="nonzero"/></clipPath></defs><g clip-path="url(#0607190b58)"><path fill="#000000" d="M 47.691406 23.714844 L 34.867188 10.929688 L 34.867188 19.558594 C 23.746094 20.933594 15.136719 30.375 15.136719 41.839844 C 15.136719 53.304688 23.746094 62.746094 34.867188 64.125 L 34.867188 58.449219 C 26.875 57.113281 20.773438 50.1875 20.773438 41.839844 C 20.773438 33.496094 26.875 26.566406 34.867188 25.234375 L 34.867188 36.21875 Z M 60.035156 39.03125 C 59.558594 35.125 57.992188 31.359375 55.457031 28.101562 L 51.46875 32.074219 C 52.976562 34.199219 53.933594 36.570312 54.34375 39.03125 Z M 40.503906 58.433594 L 40.503906 64.125 C 44.421875 63.648438 48.226562 62.128906 51.496094 59.601562 L 47.453125 55.566406 C 45.335938 57.058594 42.96875 58.011719 40.503906 58.433594 Z M 51.46875 51.605469 L 55.457031 55.582031 C 57.992188 52.320312 59.558594 48.558594 60.035156 44.652344 L 54.34375 44.652344 C 53.933594 47.109375 52.976562 49.484375 51.46875 51.605469 Z M 51.46875 51.605469 " fill-opacity="1" fill-rule="nonzero"/></g></svg>