<svg xmlns="http://www.w3.org/2000/svg" xmlns:xlink="http://www.w3.org/1999/xlink" width="270" zoomAndPan="magnify" viewBox="0 0 202.5 60" height="80" preserveAspectRatio="xMidYMid meet" version="1.0"><defs><g/><clipPath id="8685a8c05b"><path d="M 0 0.0742188 L 202 0.0742188 L 202 59.925781 L 0 59.925781 Z M 0 0.0742188 " clip-rule="nonzero"/></clipPath><clipPath id="de75642ec5"><path d="M 0 7.597656 L 53.867188 7.597656 L 53.867188 54.730469 L 0 54.730469 Z M 0 7.597656 " clip-rule="nonzero"/></clipPath><clipPath id="30f52bb722"><path d="M 138.683594 2 L 197.789062 2 L 197.789062 30.367188 L 138.683594 30.367188 Z M 138.683594 2 " clip-rule="nonzero"/></clipPath></defs><g clip-path="url(#8685a8c05b)"><path fill="#ffffff" d="M 0 0.0742188 L 202 0.0742188 L 202 59.925781 L 0 59.925781 Z M 0 0.0742188 " fill-opacity="1" fill-rule="nonzero"/><path fill="#ffffff" d="M 0 0.0742188 L 202 0.0742188 L 202 59.925781 L 0 59.925781 Z M 0 0.0742188 " fill-opacity="1" fill-rule="nonzero"/></g><g clip-path="url(#de75642ec5)"><path fill="#000000" d="M 53.507812 28.765625 L 46.867188 23.4375 C 46.867188 23.40625 46.890625 23.382812 46.890625 23.351562 L 46.890625 11.152344 C 46.890625 10.667969 46.503906 10.277344 46.019531 10.277344 L 40.808594 10.277344 C 40.324219 10.277344 39.9375 10.667969 39.9375 11.152344 L 39.9375 17.882812 L 27.464844 7.855469 C 27.152344 7.597656 26.703125 7.597656 26.378906 7.855469 L 0.347656 28.765625 C 0.15625 28.917969 0.0351562 29.15625 0.0273438 29.402344 C 0.015625 29.652344 0.101562 29.890625 0.273438 30.0625 L 2.878906 32.675781 C 3.191406 32.992188 3.695312 33.023438 4.039062 32.742188 L 4.363281 32.484375 L 4.363281 53.855469 C 4.363281 54.34375 4.75 54.730469 5.234375 54.730469 L 48.621094 54.730469 C 49.105469 54.730469 49.492188 54.34375 49.492188 53.855469 L 49.492188 32.472656 L 49.816406 32.730469 C 49.976562 32.859375 50.171875 32.925781 50.367188 32.925781 C 50.589844 32.925781 50.804688 32.839844 50.980469 32.667969 L 53.582031 30.050781 C 53.753906 29.878906 53.851562 29.628906 53.832031 29.390625 C 53.820312 29.15625 53.703125 28.917969 53.507812 28.765625 Z M 41.679688 18.988281 L 41.679688 12.015625 L 45.15625 12.015625 L 45.15625 22.054688 L 41.636719 19.222656 C 41.660156 19.148438 41.679688 19.074219 41.679688 18.988281 Z M 20.847656 52.980469 L 20.847656 39.90625 L 32.996094 39.90625 L 32.996094 52.980469 Z M 47.761719 31.1875 L 47.761719 52.96875 L 34.742188 52.96875 L 34.742188 39.03125 C 34.742188 38.542969 34.351562 38.15625 33.867188 38.15625 L 19.988281 38.15625 C 19.503906 38.15625 19.117188 38.542969 19.117188 39.03125 L 19.117188 52.96875 L 6.09375 52.96875 L 6.09375 31.1875 C 6.09375 31.144531 6.074219 31.109375 6.074219 31.066406 L 26.929688 14.015625 L 47.78125 31.078125 C 47.773438 31.109375 47.761719 31.152344 47.761719 31.1875 Z M 50.300781 30.894531 L 27.476562 12.210938 C 27.316406 12.082031 27.121094 12.015625 26.929688 12.015625 C 26.734375 12.015625 26.539062 12.082031 26.378906 12.210938 L 3.554688 30.894531 L 2.1875 29.523438 L 26.929688 9.652344 L 51.667969 29.523438 Z M 50.300781 30.894531 " fill-opacity="1" fill-rule="nonzero"/></g><g clip-path="url(#30f52bb722)"><path fill="#000000" d="M 176.503906 8.261719 C 175.316406 7.234375 173.988281 6.453125 172.519531 5.921875 C 171.050781 5.390625 169.539062 5.140625 167.980469 5.175781 L 167.277344 5.167969 L 167.148438 12.386719 L 179.355469 12.382812 L 178.90625 11.367188 C 178.308594 10.167969 177.507812 9.132812 176.503906 8.261719 Z M 168.59375 10.941406 L 168.671875 6.640625 C 169.925781 6.675781 171.140625 6.921875 172.3125 7.378906 C 173.488281 7.835938 174.554688 8.476562 175.515625 9.300781 C 176.070312 9.789062 176.5625 10.335938 176.996094 10.9375 Z M 165.171875 5.175781 C 163.613281 5.140625 162.101562 5.390625 160.632812 5.921875 C 159.164062 6.457031 157.839844 7.234375 156.652344 8.261719 C 155.648438 9.132812 154.847656 10.167969 154.246094 11.363281 L 153.800781 12.378906 L 166.003906 12.382812 L 165.875 5.164062 Z M 156.160156 10.9375 C 156.652344 10.28125 157.207031 9.691406 157.828125 9.164062 C 158.445312 8.636719 159.117188 8.1875 159.839844 7.816406 C 160.558594 7.441406 161.3125 7.15625 162.097656 6.960938 C 162.882812 6.761719 163.679688 6.65625 164.488281 6.640625 L 164.5625 10.941406 Z M 196.824219 17.800781 C 196.453125 16.554688 196.019531 15.332031 195.527344 14.128906 L 195.402344 13.839844 L 195.113281 13.730469 C 195.039062 13.707031 188.007812 11.15625 184.171875 10.050781 C 178.820312 4.714844 172.933594 2.007812 166.679688 2.007812 C 162.054688 2.089844 157.746094 3.324219 153.757812 5.710938 C 151.269531 7.128906 148.980469 8.824219 146.886719 10.796875 L 141.042969 11.441406 L 138.632812 23.488281 L 143.65625 24.484375 L 145.640625 24.484375 C 145.644531 24.871094 145.6875 25.25 145.765625 25.628906 C 145.84375 26.003906 145.957031 26.371094 146.105469 26.726562 C 146.253906 27.078125 146.433594 27.417969 146.648438 27.734375 C 146.859375 28.054688 147.101562 28.347656 147.371094 28.617188 C 147.640625 28.890625 147.933594 29.128906 148.25 29.34375 C 148.566406 29.554688 148.898438 29.734375 149.25 29.882812 C 149.597656 30.027344 149.960938 30.136719 150.332031 30.210938 C 150.703125 30.285156 151.078125 30.324219 151.457031 30.324219 C 151.835938 30.324219 152.210938 30.285156 152.582031 30.210938 C 152.953125 30.136719 153.3125 30.027344 153.664062 29.882812 C 154.011719 29.734375 154.347656 29.554688 154.660156 29.34375 C 154.976562 29.128906 155.269531 28.890625 155.539062 28.617188 C 155.808594 28.347656 156.050781 28.054688 156.261719 27.734375 C 156.476562 27.417969 156.65625 27.078125 156.804688 26.726562 C 156.953125 26.371094 157.066406 26.003906 157.144531 25.628906 C 157.222656 25.25 157.265625 24.871094 157.269531 24.484375 L 157.269531 24.449219 C 163.265625 24.429688 171.550781 24.402344 178.832031 24.371094 C 178.832031 24.40625 178.832031 24.445312 178.832031 24.480469 C 178.835938 24.863281 178.878906 25.246094 178.957031 25.621094 C 179.035156 26 179.148438 26.363281 179.296875 26.71875 C 179.445312 27.074219 179.625 27.410156 179.835938 27.730469 C 180.050781 28.046875 180.292969 28.34375 180.5625 28.613281 C 180.832031 28.882812 181.125 29.125 181.4375 29.335938 C 181.753906 29.550781 182.089844 29.730469 182.4375 29.875 C 182.789062 30.023438 183.148438 30.132812 183.519531 30.207031 C 183.890625 30.28125 184.265625 30.320312 184.644531 30.320312 C 185.023438 30.320312 185.398438 30.28125 185.769531 30.207031 C 186.140625 30.132812 186.503906 30.023438 186.851562 29.875 C 187.203125 29.730469 187.535156 29.550781 187.851562 29.335938 C 188.167969 29.125 188.460938 28.882812 188.730469 28.613281 C 189 28.34375 189.238281 28.046875 189.453125 27.730469 C 189.664062 27.410156 189.847656 27.074219 189.996094 26.71875 C 190.144531 26.363281 190.257812 26 190.335938 25.621094 C 190.414062 25.246094 190.453125 24.863281 190.460938 24.480469 C 190.460938 24.417969 190.453125 24.355469 190.453125 24.296875 C 193.265625 24.269531 195.027344 24.25 195.6875 24.222656 C 195.980469 24.222656 196.253906 24.148438 196.511719 24.003906 C 196.769531 23.855469 196.976562 23.65625 197.128906 23.402344 C 197.734375 22.429688 197.636719 20.59375 196.824219 17.800781 Z M 151.457031 28.960938 C 151.167969 28.960938 150.878906 28.929688 150.597656 28.875 C 150.3125 28.816406 150.039062 28.730469 149.773438 28.617188 C 149.503906 28.507812 149.25 28.367188 149.011719 28.207031 C 148.773438 28.042969 148.550781 27.855469 148.34375 27.648438 C 148.140625 27.441406 147.957031 27.214844 147.796875 26.96875 C 147.636719 26.726562 147.503906 26.46875 147.390625 26.195312 C 147.28125 25.925781 147.199219 25.644531 147.140625 25.355469 C 147.085938 25.066406 147.058594 24.777344 147.058594 24.480469 C 147.058594 24.1875 147.085938 23.898438 147.140625 23.609375 C 147.199219 23.320312 147.28125 23.039062 147.390625 22.769531 C 147.503906 22.496094 147.636719 22.238281 147.796875 21.996094 C 147.957031 21.75 148.140625 21.523438 148.34375 21.316406 C 148.550781 21.109375 148.773438 20.921875 149.011719 20.757812 C 149.25 20.59375 149.503906 20.457031 149.773438 20.34375 C 150.039062 20.234375 150.3125 20.148438 150.597656 20.089844 C 150.878906 20.03125 151.167969 20.003906 151.457031 20.003906 C 151.722656 20.003906 151.988281 20.03125 152.25 20.078125 C 152.789062 20.183594 153.289062 20.382812 153.753906 20.675781 C 154.21875 20.96875 154.613281 21.339844 154.941406 21.78125 C 155.269531 22.226562 155.511719 22.71875 155.660156 23.253906 C 155.808594 23.789062 155.859375 24.332031 155.8125 24.886719 C 155.761719 25.441406 155.613281 25.964844 155.371094 26.464844 C 155.128906 26.964844 154.808594 27.402344 154.40625 27.777344 C 154.003906 28.152344 153.546875 28.445312 153.039062 28.648438 C 152.527344 28.851562 152 28.953125 151.457031 28.957031 Z M 184.636719 28.960938 C 184.347656 28.960938 184.0625 28.929688 183.78125 28.875 C 183.496094 28.816406 183.222656 28.730469 182.957031 28.617188 C 182.6875 28.507812 182.433594 28.367188 182.195312 28.207031 C 181.953125 28.042969 181.734375 27.855469 181.527344 27.648438 C 181.324219 27.441406 181.140625 27.214844 180.980469 26.96875 C 180.820312 26.726562 180.683594 26.46875 180.574219 26.195312 C 180.464844 25.925781 180.382812 25.644531 180.324219 25.355469 C 180.269531 25.066406 180.242188 24.777344 180.242188 24.480469 C 180.242188 24.1875 180.269531 23.898438 180.324219 23.609375 C 180.382812 23.320312 180.464844 23.039062 180.574219 22.769531 C 180.683594 22.496094 180.820312 22.238281 180.980469 21.996094 C 181.140625 21.75 181.324219 21.523438 181.527344 21.316406 C 181.734375 21.109375 181.953125 20.921875 182.195312 20.757812 C 182.433594 20.59375 182.6875 20.457031 182.957031 20.34375 C 183.222656 20.234375 183.496094 20.148438 183.78125 20.089844 C 184.0625 20.03125 184.347656 20.003906 184.636719 20.003906 C 184.902344 20.003906 185.164062 20.027344 185.425781 20.074219 C 185.964844 20.175781 186.464844 20.375 186.933594 20.664062 C 187.398438 20.957031 187.796875 21.328125 188.128906 21.773438 C 188.460938 22.214844 188.703125 22.707031 188.855469 23.242188 C 189.003906 23.777344 189.054688 24.324219 189.007812 24.878906 C 188.957031 25.4375 188.8125 25.964844 188.570312 26.464844 C 188.324219 26.964844 188.003906 27.402344 187.597656 27.78125 C 187.195312 28.15625 186.738281 28.445312 186.226562 28.648438 C 185.714844 28.851562 185.1875 28.953125 184.636719 28.957031 Z M 195.925781 22.632812 C 195.859375 22.75 195.757812 22.800781 195.628906 22.785156 C 194.976562 22.808594 193.117188 22.835938 190.230469 22.859375 C 190.207031 22.765625 190.175781 22.679688 190.144531 22.589844 C 190.125 22.53125 190.109375 22.472656 190.089844 22.414062 C 190.039062 22.28125 189.980469 22.148438 189.925781 22.019531 C 189.917969 21.996094 189.910156 21.972656 189.898438 21.953125 C 189.828125 21.800781 189.753906 21.65625 189.671875 21.515625 C 189.648438 21.472656 189.617188 21.429688 189.589844 21.382812 C 189.53125 21.289062 189.472656 21.191406 189.410156 21.101562 C 189.375 21.046875 189.335938 20.996094 189.296875 20.945312 C 189.238281 20.867188 189.179688 20.785156 189.117188 20.707031 C 189.074219 20.65625 189.027344 20.605469 188.984375 20.554688 C 188.921875 20.484375 188.859375 20.410156 188.792969 20.34375 C 188.746094 20.292969 188.695312 20.246094 188.644531 20.199219 C 188.578125 20.132812 188.511719 20.070312 188.441406 20.007812 C 188.375 19.949219 188.335938 19.917969 188.28125 19.871094 C 188.222656 19.828125 188.136719 19.761719 188.066406 19.703125 C 187.992188 19.644531 187.949219 19.621094 187.890625 19.582031 C 187.832031 19.539062 187.742188 19.480469 187.664062 19.433594 C 187.589844 19.382812 187.542969 19.359375 187.480469 19.324219 C 187.414062 19.289062 187.320312 19.238281 187.238281 19.195312 C 187.175781 19.164062 187.113281 19.128906 187.046875 19.101562 C 186.960938 19.0625 186.878906 19.027344 186.792969 18.992188 C 186.726562 18.964844 186.664062 18.9375 186.59375 18.914062 C 186.507812 18.882812 186.414062 18.855469 186.324219 18.828125 C 186.257812 18.804688 186.195312 18.785156 186.128906 18.765625 C 186.03125 18.742188 185.933594 18.722656 185.835938 18.699219 C 185.769531 18.6875 185.707031 18.671875 185.644531 18.660156 C 185.535156 18.640625 185.421875 18.628906 185.3125 18.613281 C 185.257812 18.609375 185.203125 18.597656 185.148438 18.59375 C 184.980469 18.578125 184.808594 18.570312 184.636719 18.570312 C 183.203125 18.570312 181.941406 19.046875 180.855469 19.996094 C 180.730469 20.105469 180.617188 20.214844 180.503906 20.324219 C 180.46875 20.359375 180.433594 20.398438 180.398438 20.433594 C 180.324219 20.515625 180.25 20.59375 180.183594 20.679688 C 180.144531 20.726562 180.105469 20.773438 180.074219 20.820312 C 180.011719 20.902344 179.953125 20.984375 179.894531 21.066406 C 179.859375 21.117188 179.824219 21.167969 179.789062 21.21875 C 179.730469 21.304688 179.679688 21.390625 179.628906 21.480469 C 179.597656 21.53125 179.570312 21.582031 179.539062 21.632812 C 179.484375 21.734375 179.433594 21.839844 179.386719 21.941406 C 179.367188 21.984375 179.347656 22.023438 179.328125 22.066406 C 179.265625 22.210938 179.207031 22.359375 179.152344 22.511719 C 179.144531 22.535156 179.136719 22.5625 179.128906 22.589844 C 179.09375 22.699219 179.058594 22.808594 179.027344 22.914062 C 171.625 22.949219 163.152344 22.980469 157.082031 22.996094 C 157.058594 22.886719 157.023438 22.777344 156.988281 22.679688 C 156.980469 22.644531 156.972656 22.617188 156.964844 22.585938 C 156.910156 22.429688 156.855469 22.277344 156.792969 22.128906 C 156.773438 22.089844 156.753906 22.050781 156.734375 22.007812 C 156.6875 21.898438 156.636719 21.789062 156.582031 21.691406 C 156.554688 21.640625 156.527344 21.589844 156.496094 21.539062 C 156.445312 21.445312 156.390625 21.359375 156.339844 21.269531 C 156.304688 21.21875 156.269531 21.164062 156.230469 21.113281 C 156.171875 21.03125 156.113281 20.945312 156.050781 20.867188 C 156.015625 20.816406 155.980469 20.769531 155.945312 20.71875 C 155.871094 20.632812 155.800781 20.550781 155.730469 20.46875 C 155.695312 20.429688 155.660156 20.390625 155.621094 20.351562 C 155.515625 20.234375 155.394531 20.121094 155.273438 20.011719 C 154.742188 19.542969 154.148438 19.179688 153.488281 18.929688 C 152.828125 18.679688 152.148438 18.554688 151.445312 18.554688 C 150.742188 18.554688 150.0625 18.683594 149.402344 18.933594 C 148.746094 19.1875 148.152344 19.550781 147.621094 20.023438 C 147.5 20.132812 147.382812 20.238281 147.269531 20.363281 C 147.234375 20.402344 147.199219 20.441406 147.164062 20.484375 C 147.089844 20.566406 147.015625 20.648438 146.949219 20.734375 C 146.910156 20.78125 146.875 20.832031 146.835938 20.882812 C 146.773438 20.964844 146.714844 21.046875 146.660156 21.128906 C 146.621094 21.183594 146.589844 21.238281 146.550781 21.289062 C 146.496094 21.378906 146.445312 21.464844 146.394531 21.554688 C 146.367188 21.609375 146.335938 21.664062 146.308594 21.714844 C 146.253906 21.816406 146.207031 21.917969 146.160156 22.023438 C 146.140625 22.070312 146.117188 22.109375 146.097656 22.15625 C 146.039062 22.304688 145.980469 22.453125 145.929688 22.609375 C 145.921875 22.640625 145.914062 22.671875 145.902344 22.707031 C 145.871094 22.8125 145.835938 22.921875 145.808594 23.027344 L 143.785156 23.03125 L 140.300781 22.339844 L 142.222656 12.765625 L 147.519531 12.179688 L 147.695312 12.011719 C 149.757812 10.003906 157.214844 3.453125 166.679688 3.453125 C 172.601562 3.453125 178.195312 6.0625 183.308594 11.207031 L 183.4375 11.335938 L 183.613281 11.386719 C 186.925781 12.328125 192.941406 14.480469 194.339844 14.984375 C 194.5625 15.535156 195.054688 16.816406 195.460938 18.210938 C 196.414062 21.476562 196.058594 22.421875 195.925781 22.632812 Z M 195.925781 22.632812 " fill-opacity="1" fill-rule="nonzero"/></g><g fill="#004aad" fill-opacity="1"><g transform="translate(53.74159, 53.955501)"><g><path d="M 15.484375 -0.367188 C 14.066406 -3.515625 12.535156 -6.636719 11.117188 -9.839844 C 13.386719 -10.664062 15.289062 -12.480469 15.289062 -15.941406 C 15.289062 -22.632812 8.90625 -22.691406 7.628906 -22.691406 L 0.285156 -22.691406 C 0.140625 -22.691406 0 -22.546875 0 -22.433594 L 0 -18.578125 L 7.628906 -18.578125 C 8.308594 -18.578125 10.976562 -18.4375 10.976562 -15.941406 C 10.976562 -13.445312 8.566406 -13.332031 7.628906 -13.332031 L 0 -13.332031 L 0 -0.253906 C 0 -0.140625 0.140625 0 0.285156 0 L 4 0 C 4.167969 0 4.3125 -0.140625 4.3125 -0.253906 L 4.3125 -9.160156 L 6.75 -9.160156 L 10.890625 -0.171875 C 10.917969 -0.0859375 11.089844 0 11.175781 0 L 15.230469 0 C 15.457031 0 15.570312 -0.171875 15.484375 -0.367188 Z M 15.484375 -0.367188 "/></g></g></g><g fill="#004aad" fill-opacity="1"><g transform="translate(73.168376, 53.955501)"><g><path d="M 10.777344 -4.226562 L 4.339844 -4.226562 L 4.339844 -9.332031 L 13.246094 -9.332031 C 13.414062 -9.332031 13.558594 -9.472656 13.558594 -9.585938 L 13.558594 -13.1875 C 13.558594 -13.332031 13.414062 -13.445312 13.246094 -13.445312 L 4.339844 -13.445312 L 4.339844 -18.578125 L 10.777344 -18.578125 L 10.777344 -22.691406 L 0.3125 -22.691406 C 0.140625 -22.691406 0 -22.546875 0 -22.433594 L 0 -0.253906 C 0 -0.140625 0.140625 0 0.3125 0 L 10.777344 0 Z M 10.777344 -4.226562 "/></g></g></g><g fill="#004aad" fill-opacity="1"><g transform="translate(90.524911, 53.955501)"><g><path d="M 18.777344 -22.691406 L 15.117188 -22.691406 C 14.917969 -22.691406 14.777344 -22.546875 14.777344 -22.433594 L 14.777344 -7.65625 L 4.3125 -22.605469 C 4.28125 -22.660156 4.113281 -22.691406 4.054688 -22.691406 L 0.285156 -22.691406 C 0.140625 -22.691406 0 -22.546875 0 -22.433594 L 0 -5.445312 L 4.339844 -5.445312 L 4.339844 -15.03125 L 14.777344 -0.0859375 C 14.804688 -0.0273438 14.976562 0 15.03125 0 L 18.777344 0 C 18.972656 0 19.089844 -0.140625 19.089844 -0.253906 L 19.089844 -22.433594 C 19.089844 -22.546875 18.972656 -22.691406 18.777344 -22.691406 Z M 18.777344 -22.691406 "/></g></g></g><g fill="#004aad" fill-opacity="1"><g transform="translate(113.695165, 53.955501)"><g><path d="M 4.679688 -14.464844 L 4.679688 -0.253906 C 4.679688 -0.140625 4.792969 0 4.992188 0 L 8.652344 0 C 8.847656 0 8.992188 -0.140625 8.992188 -0.253906 L 8.992188 -14.464844 Z M 0.3125 -18.804688 L 13.332031 -18.804688 C 13.527344 -18.804688 13.640625 -18.917969 13.640625 -19.058594 L 13.640625 -22.433594 C 13.640625 -22.546875 13.527344 -22.691406 13.332031 -22.691406 L 0.3125 -22.691406 C 0.140625 -22.691406 0 -22.546875 0 -22.433594 L 0 -19.058594 C 0 -18.917969 0.140625 -18.804688 0.3125 -18.804688 Z M 0.3125 -18.804688 "/></g></g></g><g fill="#004aad" fill-opacity="1"><g transform="translate(131.136772, 53.955501)"><g/></g></g><g fill="#004aad" fill-opacity="1"><g transform="translate(141.346688, 53.955501)"><g><path d="M 4.339844 -12.847656 L 4.339844 -22.433594 C 4.339844 -22.546875 4.226562 -22.691406 4.027344 -22.691406 L 0.3125 -22.691406 C 0.140625 -22.691406 0 -22.546875 0 -22.433594 L 0 -12.847656 Z M 16.960938 -22.691406 L 13.246094 -22.691406 C 13.074219 -22.691406 12.933594 -22.546875 12.933594 -22.433594 L 12.933594 -8.480469 L 4.339844 -8.480469 L 4.339844 -8.507812 L 0 -8.507812 L 0 -0.253906 C 0 -0.140625 0.140625 0 0.3125 0 L 4.027344 0 C 4.226562 0 4.339844 -0.140625 4.339844 -0.253906 L 4.339844 -4.253906 L 12.933594 -4.253906 L 12.933594 -0.253906 C 12.933594 -0.140625 13.074219 0 13.246094 0 L 16.960938 0 C 17.160156 0 17.273438 -0.140625 17.273438 -0.253906 L 17.273438 -22.433594 C 17.273438 -22.546875 17.160156 -22.691406 16.960938 -22.691406 Z M 16.960938 -22.691406 "/></g></g></g><g fill="#004aad" fill-opacity="1"><g transform="translate(162.616846, 53.955501)"><g><path d="M 16.734375 -22.691406 L 13.046875 -22.691406 C 12.847656 -22.691406 12.734375 -22.546875 12.734375 -22.433594 L 12.734375 -7.574219 C 12.734375 -5.277344 10.636719 -4.167969 8.507812 -4.167969 C 6.410156 -4.167969 4.539062 -5.359375 4.28125 -7.601562 L 4.28125 -18.578125 L 0 -18.578125 L 0 -7.574219 C 0 -2.894531 3.828125 0 8.507812 0 C 13.332031 0 17.015625 -2.78125 17.015625 -7.574219 L 17.015625 -22.433594 C 17.015625 -22.546875 16.875 -22.691406 16.734375 -22.691406 Z M 16.734375 -22.691406 "/></g></g></g><g fill="#004aad" fill-opacity="1"><g transform="translate(183.60341, 53.955501)"><g><path d="M 11.0625 -15.941406 C 11.0625 -13.445312 7.714844 -13.445312 7.714844 -13.445312 L 4.3125 -13.445312 L 4.3125 -18.632812 L 7.714844 -18.632812 C 7.714844 -18.632812 11.0625 -18.664062 11.0625 -15.941406 Z M 15.402344 -16.195312 C 15.402344 -22.859375 7.714844 -22.691406 7.714844 -22.691406 L 0.3125 -22.691406 C 0.140625 -22.691406 0 -22.546875 0 -22.433594 L 0 -9.21875 L 7.714844 -9.21875 C 7.714844 -9.21875 11.375 -9.386719 11.375 -6.722656 C 11.375 -4.539062 9.132812 -4.140625 7.714844 -4.140625 L 4.339844 -4.140625 L 4.339844 0 L 7.714844 0 C 9.246094 0 15.710938 -0.285156 15.710938 -6.609375 C 15.710938 -6.609375 15.855469 -10.125 12.253906 -11.34375 C 13.984375 -12.054688 15.402344 -13.558594 15.402344 -16.195312 Z M 15.402344 -16.195312 "/></g></g></g></svg>