<svg xmlns="http://www.w3.org/2000/svg" xmlns:xlink="http://www.w3.org/1999/xlink" width="270" zoomAndPan="magnify" viewBox="0 0 202.5 60" height="80" preserveAspectRatio="xMidYMid meet" version="1.0"><defs><g/><clipPath id="3f038cf32a"><path d="M 0 7.617188 L 54 7.617188 L 54 54.867188 L 0 54.867188 Z M 0 7.617188 " clip-rule="nonzero"/></clipPath><clipPath id="51d94a5458"><path d="M 139.027344 2 L 198.277344 2 L 198.277344 30.441406 L 139.027344 30.441406 Z M 139.027344 2 " clip-rule="nonzero"/></clipPath></defs><g clip-path="url(#3f038cf32a)"><path fill="#000000" d="M 53.640625 28.835938 L 46.984375 23.496094 C 46.984375 23.464844 47.003906 23.441406 47.003906 23.410156 L 47.003906 11.179688 C 47.003906 10.691406 46.617188 10.300781 46.132812 10.300781 L 40.910156 10.300781 C 40.425781 10.300781 40.035156 10.691406 40.035156 11.179688 L 40.035156 17.929688 L 27.535156 7.875 C 27.222656 7.617188 26.769531 7.617188 26.445312 7.875 L 0.347656 28.835938 C 0.15625 28.988281 0.0351562 29.226562 0.0273438 29.476562 C 0.015625 29.726562 0.101562 29.964844 0.273438 30.136719 L 2.882812 32.757812 C 3.199219 33.070312 3.703125 33.105469 4.050781 32.824219 L 4.375 32.5625 L 4.375 53.988281 C 4.375 54.476562 4.761719 54.867188 5.246094 54.867188 L 48.742188 54.867188 C 49.226562 54.867188 49.617188 54.476562 49.617188 53.988281 L 49.617188 32.550781 L 49.941406 32.8125 C 50.101562 32.941406 50.296875 33.007812 50.488281 33.007812 C 50.714844 33.007812 50.933594 32.921875 51.105469 32.746094 L 53.714844 30.125 C 53.886719 29.953125 53.984375 29.703125 53.964844 29.464844 C 53.953125 29.226562 53.832031 28.988281 53.640625 28.835938 Z M 41.785156 19.035156 L 41.785156 12.046875 L 45.269531 12.046875 L 45.269531 22.109375 L 41.742188 19.273438 C 41.761719 19.195312 41.785156 19.121094 41.785156 19.035156 Z M 20.898438 53.113281 L 20.898438 40.003906 L 33.078125 40.003906 L 33.078125 53.113281 Z M 47.878906 31.261719 L 47.878906 53.101562 L 34.828125 53.101562 L 34.828125 39.128906 C 34.828125 38.640625 34.4375 38.25 33.953125 38.25 L 20.035156 38.25 C 19.550781 38.25 19.164062 38.640625 19.164062 39.128906 L 19.164062 53.101562 L 6.109375 53.101562 L 6.109375 31.261719 C 6.109375 31.21875 6.089844 31.1875 6.089844 31.144531 L 26.996094 14.050781 L 47.902344 31.15625 C 47.890625 31.1875 47.878906 31.230469 47.878906 31.261719 Z M 50.425781 30.96875 L 27.542969 12.242188 C 27.382812 12.113281 27.1875 12.046875 26.996094 12.046875 C 26.800781 12.046875 26.605469 12.113281 26.445312 12.242188 L 3.5625 30.96875 L 2.195312 29.59375 L 26.996094 9.675781 L 51.796875 29.59375 Z M 50.425781 30.96875 " fill-opacity="1" fill-rule="nonzero"/></g><g clip-path="url(#51d94a5458)"><path fill="#000000" d="M 176.9375 8.28125 C 175.746094 7.25 174.417969 6.46875 172.945312 5.9375 C 171.472656 5.402344 169.957031 5.15625 168.398438 5.1875 L 167.691406 5.179688 L 167.5625 12.417969 L 179.796875 12.414062 L 179.347656 11.394531 C 178.746094 10.195312 177.945312 9.15625 176.9375 8.28125 Z M 169.007812 10.96875 L 169.085938 6.65625 C 170.34375 6.691406 171.5625 6.9375 172.738281 7.394531 C 173.917969 7.855469 174.984375 8.496094 175.949219 9.324219 C 176.503906 9.8125 177 10.359375 177.433594 10.964844 Z M 165.582031 5.1875 C 164.019531 5.15625 162.5 5.40625 161.03125 5.9375 C 159.558594 6.472656 158.226562 7.253906 157.039062 8.28125 C 156.03125 9.15625 155.230469 10.191406 154.628906 11.390625 L 154.179688 12.410156 L 166.414062 12.414062 L 166.285156 5.175781 Z M 156.546875 10.964844 C 157.039062 10.308594 157.59375 9.714844 158.214844 9.1875 C 158.839844 8.65625 159.511719 8.207031 160.234375 7.835938 C 160.957031 7.460938 161.710938 7.175781 162.496094 6.976562 C 163.285156 6.777344 164.082031 6.671875 164.894531 6.660156 L 164.96875 10.96875 Z M 197.308594 17.847656 C 196.9375 16.597656 196.503906 15.371094 196.007812 14.164062 L 195.886719 13.875 L 195.59375 13.765625 C 195.519531 13.738281 188.472656 11.183594 184.625 10.074219 C 179.261719 4.726562 173.363281 2.011719 167.09375 2.011719 C 162.453125 2.097656 158.136719 3.332031 154.136719 5.722656 C 151.644531 7.148438 149.347656 8.847656 147.25 10.824219 L 141.390625 11.472656 L 138.976562 23.546875 L 144.011719 24.542969 L 146 24.542969 C 146.007812 24.929688 146.046875 25.3125 146.125 25.691406 C 146.203125 26.070312 146.316406 26.433594 146.46875 26.789062 C 146.617188 27.144531 146.796875 27.484375 147.011719 27.804688 C 147.222656 28.121094 147.464844 28.417969 147.734375 28.6875 C 148.007812 28.960938 148.300781 29.203125 148.617188 29.414062 C 148.933594 29.628906 149.265625 29.808594 149.617188 29.953125 C 149.96875 30.101562 150.328125 30.210938 150.703125 30.285156 C 151.074219 30.363281 151.449219 30.398438 151.828125 30.398438 C 152.210938 30.398438 152.585938 30.363281 152.957031 30.285156 C 153.328125 30.210938 153.691406 30.101562 154.042969 29.953125 C 154.394531 29.808594 154.726562 29.628906 155.042969 29.414062 C 155.359375 29.203125 155.652344 28.960938 155.921875 28.6875 C 156.195312 28.417969 156.433594 28.121094 156.648438 27.804688 C 156.863281 27.484375 157.042969 27.144531 157.191406 26.789062 C 157.339844 26.433594 157.453125 26.070312 157.53125 25.691406 C 157.613281 25.3125 157.652344 24.929688 157.660156 24.542969 L 157.660156 24.507812 C 163.667969 24.492188 171.976562 24.464844 179.273438 24.429688 C 179.273438 24.46875 179.273438 24.507812 179.273438 24.539062 C 179.277344 24.925781 179.320312 25.308594 179.398438 25.683594 C 179.476562 26.0625 179.589844 26.429688 179.738281 26.785156 C 179.886719 27.140625 180.070312 27.476562 180.28125 27.796875 C 180.496094 28.117188 180.738281 28.414062 181.007812 28.683594 C 181.277344 28.953125 181.570312 29.195312 181.886719 29.410156 C 182.203125 29.621094 182.539062 29.800781 182.886719 29.949219 C 183.238281 30.097656 183.601562 30.207031 183.972656 30.28125 C 184.347656 30.355469 184.722656 30.394531 185.101562 30.394531 C 185.480469 30.394531 185.855469 30.355469 186.230469 30.28125 C 186.601562 30.207031 186.960938 30.097656 187.3125 29.949219 C 187.664062 29.800781 188 29.621094 188.316406 29.410156 C 188.632812 29.195312 188.925781 28.953125 189.195312 28.683594 C 189.464844 28.414062 189.707031 28.117188 189.921875 27.796875 C 190.132812 27.476562 190.316406 27.140625 190.464844 26.785156 C 190.613281 26.429688 190.726562 26.0625 190.804688 25.683594 C 190.882812 25.308594 190.925781 24.925781 190.929688 24.539062 C 190.929688 24.476562 190.925781 24.417969 190.921875 24.355469 C 193.742188 24.332031 195.507812 24.308594 196.167969 24.285156 C 196.464844 24.28125 196.738281 24.207031 196.996094 24.0625 C 197.253906 23.914062 197.460938 23.714844 197.617188 23.460938 C 198.222656 22.484375 198.125 20.644531 197.308594 17.847656 Z M 151.828125 29.03125 C 151.539062 29.03125 151.253906 29.003906 150.96875 28.945312 C 150.683594 28.886719 150.410156 28.800781 150.140625 28.6875 C 149.875 28.578125 149.621094 28.4375 149.378906 28.273438 C 149.140625 28.109375 148.917969 27.925781 148.710938 27.714844 C 148.507812 27.507812 148.324219 27.28125 148.164062 27.035156 C 148.003906 26.792969 147.867188 26.53125 147.757812 26.261719 C 147.644531 25.988281 147.5625 25.707031 147.503906 25.417969 C 147.449219 25.128906 147.421875 24.835938 147.421875 24.542969 C 147.421875 24.246094 147.449219 23.957031 147.503906 23.667969 C 147.5625 23.378906 147.644531 23.097656 147.757812 22.824219 C 147.867188 22.550781 148.003906 22.292969 148.164062 22.046875 C 148.324219 21.804688 148.507812 21.578125 148.710938 21.367188 C 148.917969 21.160156 149.140625 20.972656 149.378906 20.808594 C 149.621094 20.644531 149.875 20.507812 150.140625 20.394531 C 150.410156 20.28125 150.683594 20.195312 150.96875 20.140625 C 151.253906 20.082031 151.539062 20.054688 151.828125 20.054688 C 152.097656 20.054688 152.363281 20.078125 152.628906 20.128906 C 153.164062 20.234375 153.667969 20.433594 154.132812 20.726562 C 154.597656 21.019531 154.996094 21.390625 155.324219 21.835938 C 155.65625 22.28125 155.894531 22.773438 156.042969 23.308594 C 156.195312 23.847656 156.246094 24.390625 156.195312 24.945312 C 156.144531 25.503906 156 26.03125 155.757812 26.53125 C 155.511719 27.03125 155.191406 27.46875 154.785156 27.847656 C 154.382812 28.222656 153.925781 28.511719 153.414062 28.71875 C 152.90625 28.921875 152.378906 29.023438 151.828125 29.027344 Z M 185.09375 29.03125 C 184.804688 29.03125 184.519531 29.003906 184.234375 28.945312 C 183.949219 28.886719 183.675781 28.800781 183.40625 28.6875 C 183.140625 28.578125 182.886719 28.4375 182.644531 28.273438 C 182.402344 28.109375 182.179688 27.925781 181.976562 27.714844 C 181.773438 27.507812 181.589844 27.28125 181.429688 27.035156 C 181.265625 26.792969 181.132812 26.53125 181.019531 26.261719 C 180.910156 25.988281 180.828125 25.707031 180.769531 25.417969 C 180.714844 25.128906 180.683594 24.835938 180.683594 24.542969 C 180.683594 24.246094 180.714844 23.957031 180.769531 23.667969 C 180.828125 23.378906 180.910156 23.097656 181.019531 22.824219 C 181.132812 22.550781 181.265625 22.292969 181.429688 22.046875 C 181.589844 21.804688 181.773438 21.578125 181.976562 21.367188 C 182.179688 21.160156 182.402344 20.972656 182.644531 20.808594 C 182.886719 20.644531 183.140625 20.507812 183.40625 20.394531 C 183.675781 20.28125 183.949219 20.195312 184.234375 20.140625 C 184.519531 20.082031 184.804688 20.054688 185.09375 20.054688 C 185.359375 20.054688 185.621094 20.078125 185.882812 20.125 C 186.421875 20.226562 186.925781 20.421875 187.394531 20.714844 C 187.863281 21.011719 188.261719 21.378906 188.59375 21.824219 C 188.925781 22.269531 189.167969 22.761719 189.320312 23.300781 C 189.472656 23.835938 189.523438 24.386719 189.472656 24.941406 C 189.425781 25.5 189.277344 26.027344 189.035156 26.53125 C 188.789062 27.03125 188.464844 27.46875 188.0625 27.847656 C 187.65625 28.226562 187.199219 28.515625 186.6875 28.71875 C 186.175781 28.925781 185.644531 29.027344 185.09375 29.027344 Z M 196.410156 22.691406 C 196.34375 22.808594 196.242188 22.859375 196.109375 22.84375 C 195.460938 22.867188 193.59375 22.890625 190.699219 22.914062 C 190.675781 22.824219 190.644531 22.734375 190.613281 22.644531 C 190.59375 22.589844 190.578125 22.527344 190.558594 22.472656 C 190.507812 22.335938 190.449219 22.203125 190.394531 22.074219 C 190.386719 22.050781 190.378906 22.027344 190.367188 22.007812 C 190.296875 21.855469 190.222656 21.707031 190.140625 21.570312 C 190.113281 21.523438 190.085938 21.480469 190.058594 21.4375 C 190 21.339844 189.941406 21.246094 189.878906 21.152344 C 189.839844 21.097656 189.804688 21.046875 189.765625 20.996094 C 189.707031 20.917969 189.648438 20.835938 189.585938 20.757812 C 189.542969 20.707031 189.496094 20.65625 189.449219 20.605469 C 189.386719 20.53125 189.324219 20.460938 189.261719 20.394531 C 189.210938 20.34375 189.160156 20.296875 189.109375 20.246094 C 189.042969 20.183594 188.976562 20.121094 188.910156 20.058594 C 188.839844 19.996094 188.800781 19.964844 188.746094 19.921875 C 188.6875 19.875 188.601562 19.8125 188.53125 19.753906 C 188.457031 19.691406 188.414062 19.667969 188.355469 19.628906 C 188.296875 19.589844 188.203125 19.527344 188.128906 19.480469 C 188.050781 19.429688 188.003906 19.40625 187.941406 19.371094 C 187.878906 19.335938 187.78125 19.285156 187.703125 19.242188 C 187.636719 19.210938 187.574219 19.175781 187.507812 19.148438 C 187.425781 19.109375 187.339844 19.074219 187.253906 19.039062 C 187.1875 19.011719 187.125 18.984375 187.054688 18.960938 C 186.96875 18.929688 186.875 18.902344 186.785156 18.875 C 186.71875 18.851562 186.652344 18.832031 186.585938 18.8125 C 186.488281 18.785156 186.390625 18.765625 186.292969 18.746094 C 186.230469 18.730469 186.167969 18.714844 186.101562 18.703125 C 185.992188 18.6875 185.878906 18.671875 185.769531 18.660156 C 185.714844 18.652344 185.660156 18.644531 185.605469 18.640625 C 185.4375 18.625 185.265625 18.613281 185.09375 18.613281 C 183.65625 18.613281 182.390625 19.09375 181.300781 20.046875 C 181.179688 20.15625 181.0625 20.265625 180.949219 20.375 C 180.914062 20.410156 180.882812 20.449219 180.84375 20.484375 C 180.769531 20.566406 180.695312 20.644531 180.628906 20.730469 C 180.589844 20.777344 180.550781 20.824219 180.519531 20.871094 C 180.457031 20.953125 180.398438 21.035156 180.339844 21.117188 C 180.304688 21.167969 180.269531 21.21875 180.230469 21.273438 C 180.175781 21.359375 180.125 21.445312 180.070312 21.535156 C 180.042969 21.585938 180.011719 21.636719 179.984375 21.6875 C 179.929688 21.789062 179.875 21.890625 179.832031 21.996094 C 179.8125 22.039062 179.789062 22.078125 179.769531 22.121094 C 179.707031 22.265625 179.648438 22.414062 179.59375 22.566406 C 179.585938 22.59375 179.578125 22.617188 179.570312 22.644531 C 179.535156 22.753906 179.5 22.863281 179.46875 22.972656 C 172.050781 23.007812 163.554688 23.035156 157.472656 23.054688 C 157.445312 22.945312 157.410156 22.835938 157.378906 22.734375 C 157.367188 22.703125 157.359375 22.671875 157.351562 22.640625 C 157.300781 22.484375 157.242188 22.335938 157.179688 22.183594 C 157.160156 22.144531 157.140625 22.105469 157.121094 22.0625 C 157.074219 21.953125 157.023438 21.84375 156.96875 21.746094 C 156.941406 21.695312 156.914062 21.640625 156.882812 21.589844 C 156.832031 21.5 156.777344 21.410156 156.722656 21.324219 C 156.691406 21.269531 156.65625 21.21875 156.617188 21.164062 C 156.558594 21.082031 156.5 21 156.4375 20.917969 C 156.398438 20.867188 156.363281 20.820312 156.328125 20.769531 C 156.257812 20.683594 156.1875 20.601562 156.113281 20.519531 C 156.078125 20.480469 156.046875 20.441406 156.007812 20.402344 C 155.898438 20.285156 155.777344 20.171875 155.65625 20.0625 C 155.125 19.589844 154.527344 19.226562 153.867188 18.976562 C 153.207031 18.726562 152.523438 18.601562 151.820312 18.601562 C 151.113281 18.601562 150.429688 18.730469 149.773438 18.980469 C 149.113281 19.234375 148.515625 19.597656 147.984375 20.070312 C 147.863281 20.179688 147.746094 20.289062 147.632812 20.414062 C 147.597656 20.453125 147.5625 20.492188 147.527344 20.53125 C 147.453125 20.613281 147.378906 20.699219 147.3125 20.785156 C 147.273438 20.832031 147.238281 20.882812 147.199219 20.933594 C 147.136719 21.015625 147.078125 21.097656 147.019531 21.183594 C 146.984375 21.234375 146.949219 21.292969 146.914062 21.34375 C 146.859375 21.429688 146.804688 21.519531 146.757812 21.609375 C 146.726562 21.660156 146.695312 21.71875 146.667969 21.765625 C 146.617188 21.871094 146.566406 21.972656 146.519531 22.078125 C 146.5 22.121094 146.476562 22.164062 146.460938 22.210938 C 146.398438 22.359375 146.339844 22.511719 146.289062 22.664062 C 146.28125 22.695312 146.273438 22.730469 146.261719 22.761719 C 146.230469 22.871094 146.195312 22.980469 146.167969 23.082031 L 144.140625 23.089844 L 140.648438 22.394531 L 142.574219 12.796875 L 147.882812 12.210938 L 148.058594 12.039062 C 150.125 10.027344 157.605469 3.460938 167.09375 3.460938 C 173.027344 3.460938 178.632812 6.078125 183.757812 11.234375 L 183.890625 11.363281 L 184.066406 11.414062 C 187.386719 12.359375 193.414062 14.515625 194.820312 15.019531 C 195.042969 15.574219 195.535156 16.855469 195.945312 18.253906 C 196.898438 21.53125 196.542969 22.476562 196.410156 22.691406 Z M 196.410156 22.691406 " fill-opacity="1" fill-rule="nonzero"/></g><g fill="#004aad" fill-opacity="1"><g transform="translate(53.874282, 54.088539)"><g><path d="M 15.523438 -0.371094 C 14.101562 -3.527344 12.566406 -6.652344 11.144531 -9.867188 C 13.421875 -10.691406 15.324219 -12.511719 15.324219 -15.980469 C 15.324219 -22.6875 8.929688 -22.746094 7.648438 -22.746094 L 0.285156 -22.746094 C 0.140625 -22.746094 0 -22.605469 0 -22.488281 L 0 -18.625 L 7.648438 -18.625 C 8.332031 -18.625 11.003906 -18.480469 11.003906 -15.980469 C 11.003906 -13.476562 8.585938 -13.363281 7.648438 -13.363281 L 0 -13.363281 L 0 -0.257812 C 0 -0.140625 0.140625 0 0.285156 0 L 4.007812 0 C 4.179688 0 4.320312 -0.140625 4.320312 -0.257812 L 4.320312 -9.183594 L 6.765625 -9.183594 L 10.917969 -0.171875 C 10.945312 -0.0859375 11.117188 0 11.203125 0 L 15.269531 0 C 15.496094 0 15.609375 -0.171875 15.523438 -0.371094 Z M 15.523438 -0.371094 "/></g></g></g><g fill="#004aad" fill-opacity="1"><g transform="translate(73.349035, 54.088539)"><g><path d="M 10.804688 -4.238281 L 4.351562 -4.238281 L 4.351562 -9.355469 L 13.277344 -9.355469 C 13.449219 -9.355469 13.589844 -9.496094 13.589844 -9.609375 L 13.589844 -13.222656 C 13.589844 -13.363281 13.449219 -13.476562 13.277344 -13.476562 L 4.351562 -13.476562 L 4.351562 -18.625 L 10.804688 -18.625 L 10.804688 -22.746094 L 0.3125 -22.746094 C 0.140625 -22.746094 0 -22.605469 0 -22.488281 L 0 -0.257812 C 0 -0.140625 0.140625 0 0.3125 0 L 10.804688 0 Z M 10.804688 -4.238281 "/></g></g></g><g fill="#004aad" fill-opacity="1"><g transform="translate(90.748424, 54.088539)"><g><path d="M 18.824219 -22.746094 L 15.15625 -22.746094 C 14.957031 -22.746094 14.8125 -22.605469 14.8125 -22.488281 L 14.8125 -7.675781 L 4.320312 -22.660156 C 4.292969 -22.71875 4.121094 -22.746094 4.066406 -22.746094 L 0.285156 -22.746094 C 0.140625 -22.746094 0 -22.605469 0 -22.488281 L 0 -5.460938 L 4.351562 -5.460938 L 4.351562 -15.070312 L 14.8125 -0.0859375 C 14.839844 -0.0273438 15.011719 0 15.070312 0 L 18.824219 0 C 19.019531 0 19.136719 -0.140625 19.136719 -0.257812 L 19.136719 -22.488281 C 19.136719 -22.605469 19.019531 -22.746094 18.824219 -22.746094 Z M 18.824219 -22.746094 "/></g></g></g><g fill="#004aad" fill-opacity="1"><g transform="translate(113.975888, 54.088539)"><g><path d="M 4.691406 -14.5 L 4.691406 -0.257812 C 4.691406 -0.140625 4.804688 0 5.003906 0 L 8.671875 0 C 8.871094 0 9.011719 -0.140625 9.011719 -0.257812 L 9.011719 -14.5 Z M 0.3125 -18.851562 L 13.363281 -18.851562 C 13.5625 -18.851562 13.675781 -18.964844 13.675781 -19.105469 L 13.675781 -22.488281 C 13.675781 -22.605469 13.5625 -22.746094 13.363281 -22.746094 L 0.3125 -22.746094 C 0.140625 -22.746094 0 -22.605469 0 -22.488281 L 0 -19.105469 C 0 -18.964844 0.140625 -18.851562 0.3125 -18.851562 Z M 0.3125 -18.851562 "/></g></g></g><g fill="#004aad" fill-opacity="1"><g transform="translate(131.46056, 54.088539)"><g/></g></g><g fill="#004aad" fill-opacity="1"><g transform="translate(141.695685, 54.088539)"><g><path d="M 4.351562 -12.878906 L 4.351562 -22.488281 C 4.351562 -22.605469 4.238281 -22.746094 4.039062 -22.746094 L 0.3125 -22.746094 C 0.140625 -22.746094 0 -22.605469 0 -22.488281 L 0 -12.878906 Z M 17.003906 -22.746094 L 13.277344 -22.746094 C 13.105469 -22.746094 12.964844 -22.605469 12.964844 -22.488281 L 12.964844 -8.5 L 4.351562 -8.5 L 4.351562 -8.53125 L 0 -8.53125 L 0 -0.257812 C 0 -0.140625 0.140625 0 0.3125 0 L 4.039062 0 C 4.238281 0 4.351562 -0.140625 4.351562 -0.257812 L 4.351562 -4.265625 L 12.964844 -4.265625 L 12.964844 -0.257812 C 12.964844 -0.140625 13.105469 0 13.277344 0 L 17.003906 0 C 17.203125 0 17.316406 -0.140625 17.316406 -0.257812 L 17.316406 -22.488281 C 17.316406 -22.605469 17.203125 -22.746094 17.003906 -22.746094 Z M 17.003906 -22.746094 "/></g></g></g><g fill="#004aad" fill-opacity="1"><g transform="translate(163.018361, 54.088539)"><g><path d="M 16.773438 -22.746094 L 13.078125 -22.746094 C 12.878906 -22.746094 12.765625 -22.605469 12.765625 -22.488281 L 12.765625 -7.589844 C 12.765625 -5.289062 10.664062 -4.179688 8.53125 -4.179688 C 6.425781 -4.179688 4.550781 -5.375 4.292969 -7.621094 L 4.292969 -18.625 L 0 -18.625 L 0 -7.589844 C 0 -2.898438 3.839844 0 8.53125 0 C 13.363281 0 17.058594 -2.785156 17.058594 -7.589844 L 17.058594 -22.488281 C 17.058594 -22.605469 16.917969 -22.746094 16.773438 -22.746094 Z M 16.773438 -22.746094 "/></g></g></g><g fill="#004aad" fill-opacity="1"><g transform="translate(184.056743, 54.088539)"><g><path d="M 11.089844 -15.980469 C 11.089844 -13.476562 7.734375 -13.476562 7.734375 -13.476562 L 4.320312 -13.476562 L 4.320312 -18.679688 L 7.734375 -18.679688 C 7.734375 -18.679688 11.089844 -18.707031 11.089844 -15.980469 Z M 15.4375 -16.234375 C 15.4375 -22.917969 7.734375 -22.746094 7.734375 -22.746094 L 0.3125 -22.746094 C 0.140625 -22.746094 0 -22.605469 0 -22.488281 L 0 -9.242188 L 7.734375 -9.242188 C 7.734375 -9.242188 11.402344 -9.410156 11.402344 -6.738281 C 11.402344 -4.550781 9.15625 -4.152344 7.734375 -4.152344 L 4.351562 -4.152344 L 4.351562 0 L 7.734375 0 C 9.269531 0 15.75 -0.285156 15.75 -6.625 C 15.75 -6.625 15.894531 -10.152344 12.28125 -11.371094 C 14.015625 -12.082031 15.4375 -13.589844 15.4375 -16.234375 Z M 15.4375 -16.234375 "/></g></g></g></svg>