<svg xmlns="http://www.w3.org/2000/svg" xmlns:xlink="http://www.w3.org/1999/xlink" width="100" zoomAndPan="magnify" viewBox="0 0 75 74.999997" height="100" preserveAspectRatio="xMidYMid meet" version="1.0"><defs><clipPath id="0e9a043374"><path d="M 11.253906 6.347656 L 63.753906 6.347656 L 63.753906 68.597656 L 11.253906 68.597656 Z M 11.253906 6.347656 " clip-rule="nonzero"/></clipPath></defs><g clip-path="url(#0e9a043374)"><path fill="#000000" d="M 49.257812 21.292969 L 34.296875 6.347656 L 34.296875 16.433594 C 21.324219 18.042969 11.28125 29.078125 11.28125 42.480469 C 11.28125 55.882812 21.324219 66.921875 34.296875 68.53125 L 34.296875 61.894531 C 24.976562 60.335938 17.855469 52.238281 17.855469 42.480469 C 17.855469 32.726562 24.976562 24.628906 34.296875 23.066406 L 34.296875 35.910156 Z M 63.660156 39.195312 C 63.101562 34.628906 61.277344 30.230469 58.316406 26.417969 L 53.664062 31.066406 C 55.425781 33.546875 56.542969 36.324219 57.019531 39.195312 Z M 40.875 61.878906 L 40.875 68.53125 C 45.445312 67.972656 49.882812 66.199219 53.699219 63.242188 L 48.980469 58.527344 C 46.511719 60.269531 43.75 61.386719 40.875 61.878906 Z M 53.664062 53.898438 L 58.316406 58.546875 C 61.277344 54.734375 63.101562 50.332031 63.660156 45.765625 L 57.019531 45.765625 C 56.542969 48.640625 55.425781 51.417969 53.664062 53.898438 Z M 53.664062 53.898438 " fill-opacity="1" fill-rule="nonzero"/></g></svg>