<svg xmlns="http://www.w3.org/2000/svg" xmlns:xlink="http://www.w3.org/1999/xlink" width="100" zoomAndPan="magnify" viewBox="0 0 75 74.999997" height="100" preserveAspectRatio="xMidYMid meet" version="1.0"><defs><clipPath id="4c32d6e69c"><path d="M 11.191406 6.273438 L 63.691406 6.273438 L 63.691406 68.523438 L 11.191406 68.523438 Z M 11.191406 6.273438 " clip-rule="nonzero"/></clipPath></defs><g clip-path="url(#4c32d6e69c)"><path fill="#000000" d="M 21.277344 30.992188 L 16.625 26.34375 C 13.664062 30.15625 11.835938 34.558594 11.277344 39.125 L 17.921875 39.125 C 18.398438 36.25 19.515625 33.472656 21.277344 30.992188 Z M 17.921875 45.691406 L 11.277344 45.691406 C 11.835938 50.257812 13.664062 54.660156 16.625 58.472656 L 21.277344 53.824219 C 19.515625 51.34375 18.398438 48.566406 17.921875 45.691406 Z M 21.242188 63.152344 C 25.058594 66.125 29.5 67.882812 34.070312 68.441406 L 34.070312 61.804688 C 31.191406 61.328125 28.429688 60.195312 25.964844 58.4375 Z M 40.648438 16.359375 L 40.648438 6.273438 L 25.683594 21.21875 L 40.648438 35.839844 L 40.648438 22.992188 C 49.972656 24.554688 57.09375 32.652344 57.09375 42.40625 C 57.09375 52.164062 49.972656 60.261719 40.648438 61.820312 L 40.648438 68.457031 C 53.621094 66.832031 63.671875 55.8125 63.671875 42.40625 C 63.671875 29.003906 53.621094 17.984375 40.648438 16.359375 Z M 40.648438 16.359375 " fill-opacity="1" fill-rule="nonzero"/></g></svg>