<svg xmlns="http://www.w3.org/2000/svg" xmlns:xlink="http://www.w3.org/1999/xlink" width="100" zoomAndPan="magnify" viewBox="0 0 75 74.999997" height="100" preserveAspectRatio="xMidYMid meet" version="1.0"><defs><clipPath id="be667c0ce6"><path d="M 14.875 10.644531 L 59.875 10.644531 L 59.875 64.644531 L 14.875 64.644531 Z M 14.875 10.644531 " clip-rule="nonzero"/></clipPath></defs><g clip-path="url(#be667c0ce6)"><path fill="#000000" d="M 23.519531 32.085938 L 19.53125 28.054688 C 16.996094 31.359375 15.429688 35.179688 14.949219 39.140625 L 20.644531 39.140625 C 21.054688 36.648438 22.011719 34.238281 23.519531 32.085938 Z M 20.644531 44.839844 L 14.949219 44.839844 C 15.429688 48.800781 16.996094 52.617188 19.53125 55.925781 L 23.519531 51.890625 C 22.011719 49.742188 21.054688 47.332031 20.644531 44.839844 Z M 23.492188 59.984375 C 26.761719 62.5625 30.566406 64.089844 34.484375 64.574219 L 34.484375 58.816406 C 32.019531 58.402344 29.652344 57.421875 27.535156 55.894531 Z M 40.121094 19.390625 L 40.121094 10.644531 L 27.296875 23.609375 L 40.121094 36.289062 L 40.121094 25.148438 C 48.113281 26.503906 54.214844 33.527344 54.214844 41.988281 C 54.214844 50.453125 48.113281 57.476562 40.121094 58.832031 L 40.121094 64.585938 C 51.242188 63.175781 59.851562 53.617188 59.851562 41.988281 C 59.851562 30.363281 51.242188 20.804688 40.121094 19.390625 Z M 40.121094 19.390625 " fill-opacity="1" fill-rule="nonzero"/></g></svg>